<?xml version="1.0" encoding="UTF-8"?>
<!DOCTYPE svg PUBLIC "-//W3C//DTD SVG 1.1//EN" "http://www.w3.org/Graphics/SVG/1.1/DTD/svg11.dtd">
<!-- Creator: CorelDRAW 2020 (64 Bit Versão de avaliação) -->
<svg xmlns="http://www.w3.org/2000/svg" xml:space="preserve" width="210mm" height="297mm" version="1.1" style="shape-rendering:geometricPrecision; text-rendering:geometricPrecision; image-rendering:optimizeQuality; fill-rule:evenodd; clip-rule:evenodd"
viewBox="0 0 21000 29700"
 xmlns:xlink="http://www.w3.org/1999/xlink"
 xmlns:xodm="http://www.corel.com/coreldraw/odm/2003">
 <defs>
  <style type="text/css">
   <![CDATA[
    .fil16 {fill:none}
    .fil5 {fill:#FEFEFE}
    .fil4 {fill:#FEFEFE;fill-rule:nonzero}
    .fil7 {fill:#373435;fill-rule:nonzero}
    .fil14 {fill:url(#id12)}
    .fil9 {fill:url(#id13)}
    .fil13 {fill:url(#id14)}
    .fil6 {fill:url(#id15)}
    .fil12 {fill:url(#id16)}
    .fil3 {fill:url(#id17)}
    .fil0 {fill:url(#id18)}
    .fil10 {fill:url(#id19);fill-rule:nonzero}
    .fil1 {fill:url(#id20);fill-rule:nonzero}
    .fil11 {fill:url(#id21);fill-rule:nonzero}
    .fil15 {fill:url(#id22);fill-rule:nonzero}
    .fil8 {fill:url(#id23);fill-rule:nonzero}
    .fil2 {fill:url(#id24);fill-rule:nonzero}
   ]]>
  </style>
      <mask id="id0">
  <linearGradient id="id1" gradientUnits="userSpaceOnUse" x1="11009.59" y1="12717.85" x2="10559.18" y2="10125.91">
   <stop offset="0" style="stop-opacity:1; stop-color:white"/>
   <stop offset="1" style="stop-opacity:0; stop-color:white"/>
  </linearGradient>
       <rect style="fill:url(#id1)" x="6646.9" y="8872.57" width="2239.13" height="2489.38"/>
      </mask>
      <mask id="id2">
  <linearGradient id="id3" gradientUnits="userSpaceOnUse" x1="11009.59" y1="12717.85" x2="10559.18" y2="10125.91">
   <stop offset="0" style="stop-opacity:1; stop-color:white"/>
   <stop offset="1" style="stop-opacity:0; stop-color:white"/>
  </linearGradient>
       <rect style="fill:url(#id3)" x="8886.75" y="9773.45" width="3492.28" height="1587.46"/>
      </mask>
      <mask id="id4">
  <linearGradient id="id5" gradientUnits="userSpaceOnUse" x1="11009.59" y1="12717.85" x2="10559.18" y2="10125.91">
   <stop offset="0" style="stop-opacity:1; stop-color:white"/>
   <stop offset="1" style="stop-opacity:0; stop-color:white"/>
  </linearGradient>
       <rect style="fill:url(#id5)" x="12481" y="9774.18" width="1329.58" height="985.65"/>
      </mask>
      <mask id="id6">
  <linearGradient id="id7" gradientUnits="userSpaceOnUse" x1="5992.7" y1="20043.04" x2="5711.71" y2="18426.07">
   <stop offset="0" style="stop-opacity:1; stop-color:white"/>
   <stop offset="1" style="stop-opacity:0; stop-color:white"/>
  </linearGradient>
       <rect style="fill:url(#id7)" x="3269.62" y="17642.74" width="1399.74" height="1555.86"/>
      </mask>
      <mask id="id8">
  <linearGradient id="id9" gradientUnits="userSpaceOnUse" x1="5992.7" y1="20043.04" x2="5711.71" y2="18426.07">
   <stop offset="0" style="stop-opacity:1; stop-color:white"/>
   <stop offset="1" style="stop-opacity:0; stop-color:white"/>
  </linearGradient>
       <rect style="fill:url(#id9)" x="4666.94" y="18204.75" width="2181.52" height="993.2"/>
      </mask>
      <mask id="id10">
  <linearGradient id="id11" gradientUnits="userSpaceOnUse" x1="5992.7" y1="20043.04" x2="5711.71" y2="18426.07">
   <stop offset="0" style="stop-opacity:1; stop-color:white"/>
   <stop offset="1" style="stop-opacity:0; stop-color:white"/>
  </linearGradient>
       <rect style="fill:url(#id11)" x="6909.2" y="18205.21" width="832.32" height="617.76"/>
      </mask>
  <linearGradient id="id12" gradientUnits="userSpaceOnUse" x1="5277.18" y1="19607.62" x2="5795.13" y2="21437.8">
   <stop offset="0" style="stop-opacity:1; stop-color:#608346"/>
   <stop offset="1" style="stop-opacity:1; stop-color:#A8CF45"/>
  </linearGradient>
  <linearGradient id="id13" gradientUnits="userSpaceOnUse" xlink:href="#id12" x1="9885.8" y1="12077.79" x2="10716.05" y2="15011.49">
  </linearGradient>
  <linearGradient id="id14" gradientUnits="userSpaceOnUse" xlink:href="#id12" x1="7867.57" y1="18153.73" x2="8043.99" y2="18777.36">
  </linearGradient>
  <linearGradient id="id15" gradientUnits="userSpaceOnUse" xlink:href="#id12" x1="14014.93" y1="9689.37" x2="14297.79" y2="10689.01">
  </linearGradient>
  <linearGradient id="id16" gradientUnits="userSpaceOnUse" x1="7510.84" y1="18209.06" x2="7510.84" y2="19972.98">
   <stop offset="0" style="stop-opacity:1; stop-color:#0F2D5E"/>
   <stop offset="1" style="stop-opacity:1; stop-color:#336699"/>
  </linearGradient>
  <linearGradient id="id17" gradientUnits="userSpaceOnUse" xlink:href="#id16" x1="13443.11" y1="9778.06" x2="13443.11" y2="12605.56">
  </linearGradient>
  <radialGradient id="id18" gradientUnits="userSpaceOnUse" gradientTransform="matrix(1.2301 -0 -0 1.22234 -2416 -3302)" cx="10500" cy="14850" r="14843.13" fx="10500" fy="14850">
   <stop offset="0" style="stop-opacity:1; stop-color:#FEFEFE"/>
   <stop offset="0.4" style="stop-opacity:1; stop-color:#FEFEFE"/>
   <stop offset="1" style="stop-opacity:1; stop-color:#F3EBD9"/>
  </radialGradient>
  <linearGradient id="id19" gradientUnits="userSpaceOnUse" xlink:href="#id16" x1="3896.34" y1="17646.6" x2="3896.34" y2="20568.51">
  </linearGradient>
  <linearGradient id="id20" gradientUnits="userSpaceOnUse" xlink:href="#id16" x1="7649.2" y1="8876.46" x2="7649.2" y2="13560.15">
  </linearGradient>
  <linearGradient id="id21" gradientUnits="userSpaceOnUse" xlink:href="#id16" x1="5610.23" y1="18208.53" x2="5610.17" y2="19937.48">
  </linearGradient>
  <linearGradient id="id22" gradientUnits="userSpaceOnUse" x1="18521.04" y1="16771.44" x2="18521.04" y2="21356.65">
   <stop offset="0" style="stop-opacity:1; stop-color:#608346"/>
   <stop offset="0.419608" style="stop-opacity:1; stop-color:#608346"/>
   <stop offset="0.678431" style="stop-opacity:1; stop-color:#8EB247"/>
   <stop offset="1" style="stop-opacity:1; stop-color:#A8CF45"/>
  </linearGradient>
  <linearGradient id="id23" gradientUnits="userSpaceOnUse" xlink:href="#id22" x1="12369.27" y1="12317.28" x2="12369.27" y2="13856.69">
  </linearGradient>
  <linearGradient id="id24" gradientUnits="userSpaceOnUse" xlink:href="#id16" x1="10396.43" y1="9777.22" x2="10396.43" y2="12548.64">
  </linearGradient>
 </defs>
 <g id="Camada_x0020_1">
  <metadata id="CorelCorpID_0Corel-Layer"/>
  <polygon class="fil0" points="292.96,29370.55 20707.04,29370.55 20707.04,329.44 292.96,329.44 "/>
  <g id="_1754558612864">
   <g>
    <path class="fil1" d="M7048.01 8876.38l758.51 0 -213.77 1242.47c175.38,-229.58 417.39,-344.37 725.91,-344.37 185.52,0 323.09,43.14 415.7,129.49 91.69,86.3 140.56,195.68 146.74,326.88 6.18,132.17 -13.35,323.29 -55.77,574.87l-464.89 2754.43 -1.79 0c-253.21,-42.72 -497.74,-93.56 -732.02,-151.78l439.28 -2602.65c30.06,-178.3 34.48,-295.9 11.38,-354.47 -22.78,-57.91 -86.94,-87.19 -190.73,-87.19 -101.91,0 -188.32,27.52 -259.52,83.56 -70.09,55.05 -122.15,181.82 -156.11,379.24l-296.3 1721.76 -758.5 0 631.88 -3672.24z"/>
    <path class="fil2" d="M9153.09 9831.45l718.09 0 -63.84 370.98c178.16,-282.82 422.11,-425.15 732.48,-425.15 322.33,0 493.42,142.33 512.7,425.15 170.81,-282.82 414.77,-425.15 732.49,-425.15 177.22,0 312.95,33.05 407.49,97.32 93.62,64.3 151,152.45 173.04,264.48 21.9,112.94 6.65,324.15 -46.6,633.6l-305.61 1775.95 -756.66 0 292.19 -1697.9c34.76,-202.02 43.74,-334.25 25.71,-394.85 -18.8,-61.53 -76.93,-91.83 -175.18,-91.83 -118.47,0 -202.57,40.4 -251.96,119.38 -49.56,79.89 -95.74,241.49 -137.29,483.01l-272.29 1582.19 -758.49 0 296.3 -1721.78c33.33,-193.74 41.21,-319.54 22.55,-376.49 -17.6,-57.85 -76.06,-86.31 -174.31,-86.31 -122.13,0 -210.22,42.24 -264.85,124.88 -54.79,83.56 -102.31,242.44 -142.77,477.51l-272.28 1582.19 -758.49 0 467.58 -2717.18z"/>
    <path class="fil3" d="M14583.35 10832.33l-709.77 26.62c17.57,-166.2 12.75,-292.9 -15.88,-377.37 -28.44,-85.44 -93.58,-128.59 -195.48,-128.59 -254.38,0 -428,267.26 -519.95,801.66 -53.43,310.41 -59.61,528.02 -19.33,651.07 40.15,123.97 121.3,186.44 243.38,186.44 190.08,0 323.75,-168.09 398.84,-503.22l697.48 44.97c-186.25,714.45 -602.21,1071.65 -1249.57,1071.65 -349.91,0 -597.65,-118.44 -742.57,-354.46 -144.86,-236.03 -177.2,-586.78 -96.9,-1053.31 79.65,-462.81 237.46,-814.47 473.88,-1056.88 225.42,-231.27 502.96,-352.25 833.22,-362.92 70.08,460.73 444.46,821.38 911.7,870.64l-0.07 -19.27c0.65,64.04 -2.34,131.72 -8.98,202.97z"/>
    <g>
     <path class="fil4" style="mask:url(#id0)" d="M7048.01 8876.38l758.51 0 -213.77 1242.47c175.38,-229.58 417.39,-344.37 725.91,-344.37 185.52,0 323.09,43.14 415.7,129.49 91.69,86.3 140.56,195.68 146.74,326.88 6.18,132.17 -13.35,323.29 -55.77,574.87l-93.23 552.42 -0.02 0c-255.55,0 -507.58,-7.76 -755.64,-22.33l89.47 -530.09c30.06,-178.3 34.48,-295.9 11.38,-354.47 -22.78,-57.91 -86.94,-87.19 -190.73,-87.19 -101.91,0 -188.32,27.52 -259.52,83.56 -70.09,55.05 -122.15,181.82 -156.11,379.24l-79.35 461.05c-252.52,-26.84 -499.64,-61.32 -740.87,-102.57l397.3 -2308.96z"/>
     <path class="fil5" style="mask:url(#id2)" d="M9153.1 9831.43l718.09 0 -63.84 370.99c178.14,-282.83 422.11,-425.16 732.49,-425.16 322.31,0 493.4,142.33 512.7,425.16 170.79,-282.83 414.75,-425.16 732.47,-425.16 177.24,0 312.96,33.07 407.5,97.34 93.62,64.28 150.99,152.44 173.05,264.46 21.88,112.95 6.65,324.15 -46.6,633.61l-7.4 42.99c-253.95,84.35 -519.71,159.84 -795.54,225.96l32.86 -190.9c34.76,-202.01 43.74,-334.24 25.7,-394.86 -18.79,-61.52 -76.95,-91.82 -175.21,-91.82 -118.46,0 -202.54,40.41 -251.93,119.37 -49.58,79.9 -95.74,241.51 -137.3,483.02l-32.63 189.64c-252.87,47.13 -512.82,86.45 -778.75,117.58l76.9 -446.8c33.35,-193.75 41.21,-319.56 22.54,-376.5 -17.59,-57.85 -76.06,-86.31 -174.31,-86.31 -122.13,0 -210.2,42.25 -264.83,124.88 -54.8,83.57 -102.32,242.44 -142.78,477.51l-61.69 358.47c-250.5,18.1 -505.42,29 -764.03,32.2l262.54 -1525.67z"/>
     <path class="fil5" style="mask:url(#id4)" d="M12484.81 10756.02c87.47,-251.96 208.3,-456.83 362.67,-615.1 225.41,-231.28 502.96,-352.26 833.22,-362.93 19.66,129.19 63.22,250.5 126.07,359.29 -385.29,235.47 -829.86,443.85 -1321.96,618.74z"/>
    </g>
    <path class="fil6" d="M13720.13 9773.52c15.3,-0.5 30.73,-0.75 46.27,-0.75 551.11,0 826.19,277.64 825.07,832.84 -446.55,-47.08 -804.35,-391.76 -871.34,-832.09z"/>
    <path class="fil7" d="M9041.81 13362.35l26.38 -104.74c47.56,24.2 95.95,36.29 145.15,36.29 28.32,0 50.45,-5.35 66.26,-16.08 15.8,-10.72 23.64,-25.44 23.64,-44.12 0,-16.77 -7.14,-30.79 -21.44,-42.06 -14.3,-11.27 -39.03,-22.83 -74.22,-34.64 -106.11,-35.19 -159.17,-90.45 -159.17,-165.77 0,-48.66 19.52,-88.8 58.56,-120.27 39.03,-31.48 90.98,-47.14 155.86,-47.14 56.64,0 106.11,9.62 148.45,28.86l-28.86 101.44c-38.76,-18.15 -79.18,-27.22 -121.24,-27.22 -25.84,0 -46.04,4.95 -60.62,14.84 -14.56,9.91 -21.84,22.83 -21.84,38.78 0,14.56 6.18,26.94 18.41,37.25 12.24,10.29 41.5,23.77 87.96,40.26 51.41,18.15 89.08,40.56 112.85,67.36 23.79,26.79 35.61,60.19 35.61,100.05 0,51.13 -20.08,92.65 -60.2,124.55 -40.14,31.87 -96.22,47.82 -168.25,47.82 -61.57,0 -116.01,-11.82 -163.29,-35.46zm846.98 -134.42l-268.03 0c2.19,23.91 14.28,42.46 36.15,55.8 21.84,13.32 49.06,20.06 81.78,20.06 41.78,0 80.28,-5.77 115.46,-17.31l16.49 84.95c-41.78,17.59 -91.81,26.38 -150.1,26.38 -69.01,0 -123.03,-18.42 -162.18,-55.25 -39.18,-36.84 -58.84,-87.15 -58.84,-150.92 0,-58.55 18.84,-109.14 56.49,-151.61 37.67,-42.48 88.38,-63.64 152.17,-63.64 58.81,0 104.45,18.97 136.9,56.9 32.44,37.94 48.65,86.6 48.65,145.97 0,19.52 -1.65,35.75 -4.94,48.67zm-268.87 -87.42l155.06 0c0,-18.98 -5.5,-37.11 -16.63,-54.3 -11.14,-17.19 -30.11,-25.7 -56.77,-25.7 -22,0 -40.14,7.28 -54.58,21.99 -14.42,14.7 -23.49,34.08 -27.08,58.01zm349.69 248.23l0 -268.85c0,-60.48 -1.1,-105.29 -3.29,-134.44l109.68 0 4.12 76.71 3.31 0c9.89,-27.76 25.29,-49.07 46.03,-63.79 20.76,-14.7 42.77,-21.98 66.12,-21.98 12.93,0 22,0.82 27.22,2.46l0 119.6c-10.72,-2.75 -22.27,-4.14 -34.64,-4.14 -23.64,0 -44.68,6.6 -63.09,19.94 -18.42,13.34 -27.62,36.97 -27.62,70.79l0 203.7 -127.84 0zm292.76 -403.29l138.55 0c53.06,173.75 80,268.59 80.82,284.54l3.31 0c4.95,-27.5 12.1,-57.87 21.44,-91.15l55.27 -193.39 135.24 0 -155.04 403.29 -128.66 0 -150.93 -403.29zm621.84 403.29l-127.84 0 0 -403.29 127.84 0 0 403.29zm7.42 -522.86c0,19.24 -6.6,35.18 -19.8,47.82 -13.2,12.66 -30.51,18.98 -51.95,18.98 -21.44,0 -38.76,-6.32 -51.95,-18.98 -13.2,-12.64 -19.8,-28.58 -19.8,-47.82 0,-19.26 6.74,-35.19 20.06,-47.84 13.34,-12.64 30.53,-18.98 51.69,-18.98 21.16,0 38.49,6.34 51.81,18.98 13.34,12.65 19.94,28.58 19.94,47.84zm391.74 418.95l17.33 93.2c-28.05,11.81 -62.69,18.13 -103.93,18.96l-15.67 27.22c17.88,2.46 32.44,9.34 43.57,20.62 11.14,11.27 16.63,24.45 16.63,39.57 0,25.3 -9.48,43.71 -28.44,55.27 -18.98,11.53 -43.31,17.31 -73,17.31 -25.83,0 -48.1,-5.5 -66.79,-16.49l17.31 -47.02c14.84,9.35 29.7,14.02 44.55,14.02 19.78,0 29.69,-7.14 29.69,-21.44 0,-16.77 -21.73,-26.66 -65.16,-29.69l32.16 -63.49c-53.6,-9.34 -95.12,-32.17 -124.67,-68.32 -29.55,-36.14 -44.39,-80.96 -44.39,-134.56 0,-61.03 20.74,-111.88 62.26,-152.58 41.51,-40.68 99.38,-61.02 173.6,-61.02 37.67,0 71.21,5.49 100.61,16.49l-20.62 94.84c-19.78,-9.35 -44.25,-14.03 -73.39,-14.03 -33.54,0 -60.48,10.31 -80.82,31.07 -20.34,20.77 -30.51,47.84 -30.51,81.1 0,34.65 10.71,62.13 32.01,82.47 21.32,20.36 48.53,30.53 81.8,30.53 28.03,0 53.32,-4.68 75.87,-14.03zm498.13 -102.26c0,65.98 -20.76,118.33 -62.27,157.11 -41.52,38.75 -93.61,58.13 -156.28,58.13 -63.23,0 -115.06,-19.1 -155.46,-57.17 -40.42,-38.07 -60.62,-88.26 -60.62,-150.65 0,-64.06 20.34,-115.74 61.02,-154.91 40.69,-39.18 94.58,-58.69 161.66,-58.69 62.67,0 113.66,19.23 152.97,57.73 39.32,38.49 58.98,87.96 58.98,148.45zm-303.5 4.94c0,35.74 7.83,64.61 23.37,86.59 15.53,22.01 36.29,33 62.4,33 25.56,0 46.18,-10.87 61.71,-32.58 15.54,-21.72 23.23,-51 23.23,-87.83 0,-35.19 -7.43,-63.91 -22.27,-86.18 -14.84,-22.26 -35.45,-33.4 -61.84,-33.4 -27.22,0 -48.39,11.14 -63.65,33.54 -15.25,22.39 -22.95,51.39 -22.95,86.86zm358.76 181.43l23.09 -90.7c14.84,8.52 33.11,15.66 54.7,21.58 21.58,5.9 40.7,8.93 57.47,8.93 36.83,0 55.24,-11 55.24,-33 0,-10.99 -4.39,-19.52 -13.32,-25.56 -8.95,-6.05 -24.89,-12.65 -47.7,-19.79 -79.17,-24.48 -118.77,-64.6 -118.77,-120.42 0,-38.75 15.54,-70.77 46.46,-95.92 30.93,-25.16 71.49,-37.67 121.79,-37.67 43.98,0 83.01,7.96 117.11,23.91l-22.27 87.42c-31.89,-15.39 -62.14,-23.09 -90.72,-23.09 -32.98,0 -49.49,10.73 -49.49,32.17 0,9.61 5.1,17.73 15.13,24.33 10.03,6.58 27.5,13.88 52.51,21.85 38.48,12.09 66.8,28.04 84.93,47.96 18.16,19.94 27.22,45.23 27.22,75.74 0,39.86 -15.66,71.61 -47,95.4 -31.35,23.77 -75.06,35.73 -131.12,35.73 -51.7,0 -96.77,-9.61 -135.26,-28.87z"/>
    <path class="fil8" d="M9050.13 13350.91l26.38 -104.73c47.56,24.2 95.94,36.29 145.15,36.29 28.32,0 50.44,-5.35 66.25,-16.09 15.81,-10.71 23.65,-25.43 23.65,-44.11 0,-16.77 -7.14,-30.79 -21.44,-42.06 -14.31,-11.27 -39.04,-22.83 -74.22,-34.64 -106.12,-35.19 -159.17,-90.45 -159.17,-165.77 0,-48.66 19.51,-88.8 58.55,-120.28 39.04,-31.47 90.99,-47.13 155.86,-47.13 56.65,0 106.11,9.62 148.46,28.86l-28.87 101.44c-38.75,-18.15 -79.17,-27.22 -121.23,-27.22 -25.84,0 -46.04,4.95 -60.62,14.84 -14.57,9.91 -21.85,22.83 -21.85,38.78 0,14.56 6.18,26.94 18.42,37.25 12.23,10.29 41.5,23.77 87.96,40.26 51.41,18.15 89.08,40.56 112.85,67.35 23.79,26.8 35.6,60.2 35.6,100.06 0,51.13 -20.07,92.65 -60.19,124.55 -40.14,31.87 -96.23,47.82 -168.26,47.82 -61.56,0 -116,-11.82 -163.28,-35.47zm846.98 -134.41l-268.03 0c2.18,23.91 14.28,42.46 36.14,55.8 21.85,13.32 49.07,20.06 81.78,20.06 41.79,0 80.28,-5.77 115.46,-17.31l16.49 84.95c-41.78,17.59 -91.81,26.38 -150.1,26.38 -69,0 -123.02,-18.42 -162.18,-55.25 -39.17,-36.84 -58.83,-87.15 -58.83,-150.92 0,-58.55 18.83,-109.14 56.49,-151.61 37.67,-42.48 88.38,-63.64 152.16,-63.64 58.82,0 104.45,18.97 136.91,56.9 32.43,37.94 48.64,86.6 48.64,145.97 0,19.52 -1.64,35.75 -4.93,48.67zm-268.87 -87.42l155.05 0c0,-18.98 -5.5,-37.11 -16.63,-54.3 -11.13,-17.19 -30.11,-25.7 -56.77,-25.7 -22,0 -40.13,7.28 -54.58,21.99 -14.42,14.7 -23.49,34.08 -27.07,58.01zm349.68 248.23l0 -268.85c0,-60.48 -1.1,-105.29 -3.29,-134.44l109.69 0 4.11 76.71 3.31 0c9.89,-27.76 25.29,-49.07 46.04,-63.79 20.76,-14.7 42.76,-21.98 66.11,-21.98 12.94,0 22.01,0.82 27.22,2.46l0 119.59c-10.71,-2.74 -22.26,-4.13 -34.64,-4.13 -23.63,0 -44.67,6.6 -63.09,19.94 -18.41,13.34 -27.62,36.97 -27.62,70.79l0 203.7 -127.84 0zm292.77 -403.29l138.55 0c53.06,173.75 79.99,268.59 80.82,284.54l3.31 0c4.95,-27.5 12.09,-57.87 21.44,-91.15l55.26 -193.39 135.24 0 -155.04 403.29 -128.66 0 -150.92 -403.29zm621.83 403.29l-127.83 0 0 -403.29 127.83 0 0 403.29zm7.43 -522.86c0,19.24 -6.6,35.18 -19.8,47.82 -13.2,12.66 -30.51,18.98 -51.96,18.98 -21.44,0 -38.75,-6.32 -51.95,-18.98 -13.2,-12.64 -19.8,-28.58 -19.8,-47.82 0,-19.26 6.74,-35.19 20.06,-47.84 13.34,-12.64 30.53,-18.98 51.69,-18.98 21.17,0 38.5,6.34 51.82,18.98 13.34,12.65 19.94,28.58 19.94,47.84zm391.73 418.95l17.33 93.2c-28.04,11.81 -62.68,18.13 -103.92,18.96l-15.67 27.22c17.87,2.46 32.44,9.34 43.57,20.62 11.13,11.27 16.63,24.45 16.63,39.57 0,25.3 -9.49,43.71 -28.45,55.27 -18.97,11.53 -43.3,17.31 -72.99,17.31 -25.84,0 -48.1,-5.5 -66.8,-16.49l17.31 -47.02c14.85,9.35 29.71,14.02 44.55,14.02 19.78,0 29.69,-7.14 29.69,-21.44 0,-16.77 -21.72,-26.66 -65.15,-29.69l32.15 -63.49c-53.6,-9.34 -95.12,-32.17 -124.66,-68.32 -29.55,-36.14 -44.4,-80.96 -44.4,-134.56 0,-61.03 20.75,-111.89 62.27,-152.58 41.5,-40.68 99.37,-61.02 173.59,-61.02 37.67,0 71.21,5.49 100.62,16.48l-20.62 94.84c-19.78,-9.34 -44.25,-14.02 -73.4,-14.02 -33.54,0 -60.48,10.31 -80.82,31.07 -20.34,20.76 -30.51,47.84 -30.51,81.1 0,34.64 10.71,62.13 32.02,82.47 21.32,20.36 48.52,30.53 81.8,30.53 28.02,0 53.32,-4.68 75.86,-14.03zm498.13 -102.26c0,65.98 -20.76,118.33 -62.26,157.11 -41.52,38.75 -93.62,58.13 -156.28,58.13 -63.23,0 -115.06,-19.1 -155.46,-57.17 -40.42,-38.07 -60.62,-88.26 -60.62,-150.65 0,-64.06 20.34,-115.74 61.02,-154.91 40.68,-39.18 94.58,-58.69 161.65,-58.69 62.67,0 113.66,19.23 152.98,57.73 39.31,38.49 58.97,87.96 58.97,148.45zm-303.49 4.94c0,35.74 7.82,64.61 23.36,86.59 15.53,22.01 36.29,33 62.41,33 25.55,0 46.17,-10.87 61.7,-32.58 15.55,-21.72 23.23,-51 23.23,-87.83 0,-35.19 -7.42,-63.91 -22.27,-86.18 -14.84,-22.27 -35.44,-33.4 -61.84,-33.4 -27.22,0 -48.38,11.13 -63.65,33.54 -15.24,22.39 -22.94,51.39 -22.94,86.86zm358.75 181.43l23.09 -90.71c14.84,8.53 33.12,15.67 54.7,21.59 21.59,5.9 40.7,8.93 57.47,8.93 36.83,0 55.25,-11 55.25,-33 0,-10.99 -4.4,-19.52 -13.33,-25.56 -8.94,-6.05 -24.89,-12.65 -47.7,-19.8 -79.17,-24.47 -118.76,-64.59 -118.76,-120.41 0,-38.75 15.54,-70.77 46.45,-95.92 30.93,-25.16 71.49,-37.67 121.8,-37.67 43.97,0 83.01,7.96 117.11,23.91l-22.27 87.41c-31.89,-15.38 -62.14,-23.08 -90.73,-23.08 -32.98,0 -49.48,10.73 -49.48,32.17 0,9.61 5.09,17.73 15.12,24.33 10.03,6.58 27.5,13.88 52.52,21.85 38.47,12.09 66.79,28.04 84.93,47.96 18.15,19.94 27.22,45.23 27.22,75.74 0,39.86 -15.67,71.61 -47,95.4 -31.35,23.77 -75.06,35.73 -131.13,35.73 -51.69,0 -96.77,-9.61 -135.26,-28.87z"/>
    <path class="fil9" d="M14194.83 13062.3c-822.76,580.26 -2259.26,964.68 -3893.91,964.68 -1634.64,0 -3071.14,-384.42 -3893.9,-964.68 1004.56,444.97 2378.42,719.4 3893.9,719.4 1515.48,0 2889.35,-274.43 3893.91,-719.4z"/>
   </g>
   <g>
    <path class="fil10" d="M3521.29 17646.55l473.19 0 -133.36 775.11c109.41,-143.22 260.39,-214.83 452.86,-214.83 115.73,0 201.56,26.91 259.33,80.78 57.2,53.84 87.69,122.08 91.54,203.92 3.86,82.45 -8.32,201.68 -34.79,358.63l-290.02 1718.34 -1.11 0c-157.97,-26.65 -310.52,-58.36 -456.68,-94.69l274.05 -1623.65c18.76,-111.23 21.51,-184.59 7.1,-221.13 -14.21,-36.13 -54.24,-54.4 -118.99,-54.4 -63.57,0 -117.48,17.17 -161.9,52.13 -43.72,34.35 -76.2,113.43 -97.39,236.59l-184.84 1074.11 -473.19 0 394.2 -2290.91z"/>
    <path class="fil11" d="M4834.53 18242.39l447.97 0 -39.82 231.43c111.12,-176.43 263.32,-265.23 456.94,-265.23 201.08,0 307.82,88.8 319.85,265.23 106.55,-176.43 258.73,-265.23 456.94,-265.23 110.56,0 195.23,20.63 254.22,60.72 58.39,40.1 94.19,95.1 107.93,164.98 13.67,70.47 4.17,202.23 -29.04,395.27l-190.66 1107.9 -472.03 0 182.27 -1059.2c21.69,-126.03 27.29,-208.52 16.02,-246.32 -11.71,-38.39 -47.98,-57.3 -109.28,-57.3 -73.89,0 -126.35,25.21 -157.19,74.48 -30.91,49.84 -59.71,150.65 -85.63,301.31l-169.85 987.03 -473.19 0 184.84 -1074.1c20.79,-120.87 25.71,-199.36 14.07,-234.87 -10.98,-36.08 -47.44,-53.85 -108.74,-53.85 -76.18,0 -131.14,26.36 -165.21,77.92 -34.18,52.12 -63.84,151.24 -89.08,297.87l-169.85 987.03 -473.18 0 291.7 -1695.07z"/>
    <path class="fil12" d="M8222.18 18866.77l-442.79 16.6c10.96,-103.68 7.96,-182.73 -9.91,-235.42 -17.74,-53.3 -58.37,-80.22 -121.95,-80.22 -158.69,0 -267,166.73 -324.37,500.11 -33.33,193.65 -37.18,329.4 -12.05,406.17 25.04,77.34 75.67,116.31 151.83,116.31 118.58,0 201.97,-104.86 248.82,-313.93l435.11 28.05c-116.19,445.71 -375.68,668.54 -779.54,668.54 -218.29,0 -372.84,-73.88 -463.25,-221.13 -90.36,-147.24 -110.54,-366.06 -60.44,-657.09 49.69,-288.73 148.13,-508.11 295.62,-659.33 140.63,-144.28 313.77,-219.75 519.8,-226.41 43.72,287.42 277.28,512.41 568.76,543.14l-0.04 -12.02c0.41,39.95 -1.46,82.17 -5.6,126.63z"/>
    <g>
     <path class="fil4" style="mask:url(#id6)" d="M3521.29 17646.55l473.19 0 -133.36 775.11c109.41,-143.22 260.39,-214.83 452.86,-214.83 115.73,0 201.56,26.91 259.33,80.78 57.2,53.84 87.69,122.08 91.54,203.92 3.86,82.45 -8.32,201.68 -34.79,358.63l-58.16 344.63 -0.01 0c-159.43,0 -316.65,-4.84 -471.41,-13.93l55.82 -330.7c18.76,-111.23 21.51,-184.59 7.1,-221.13 -14.21,-36.13 -54.24,-54.4 -118.99,-54.4 -63.57,0 -117.48,17.17 -161.9,52.13 -43.72,34.35 -76.2,113.43 -97.39,236.59l-49.5 287.63c-157.53,-16.75 -311.7,-38.26 -462.19,-63.99l247.86 -1440.44z"/>
     <path class="fil5" style="mask:url(#id8)" d="M4834.54 18242.36l447.97 0 -39.82 231.44c111.13,-176.44 263.33,-265.24 456.96,-265.24 201.07,0 307.81,88.8 319.84,265.24 106.55,-176.44 258.75,-265.24 456.96,-265.24 110.56,0 195.23,20.63 254.21,60.73 58.41,40.1 94.2,95.1 107.96,164.98 13.65,70.46 4.15,202.22 -29.07,395.28l-4.62 26.81c-158.42,52.62 -324.22,99.72 -496.29,140.97l20.49 -119.09c21.69,-126.03 27.29,-208.52 16.04,-246.33 -11.72,-38.39 -48.01,-57.29 -109.31,-57.29 -73.89,0 -126.35,25.21 -157.16,74.47 -30.93,49.85 -59.73,150.67 -85.66,301.33l-20.35 118.31c-157.75,29.4 -319.92,53.93 -485.82,73.35l47.97 -278.73c20.81,-120.88 25.71,-199.36 14.07,-234.88 -10.98,-36.09 -47.45,-53.85 -108.75,-53.85 -76.19,0 -131.13,26.36 -165.21,77.91 -34.18,52.14 -63.83,151.24 -89.07,297.89l-38.49 223.63c-156.27,11.29 -315.3,18.09 -476.64,20.09l163.79 -951.78z"/>
     <path class="fil5" style="mask:url(#id10)" d="M6913.01 18819.16c54.57,-157.19 129.95,-284.99 226.25,-383.73 140.63,-144.28 313.77,-219.75 519.8,-226.41 12.27,80.59 39.44,156.27 78.65,224.14 -240.36,146.9 -517.7,276.89 -824.7,386z"/>
    </g>
    <path class="fil13" d="M7683.66 18206.23c9.55,-0.31 19.17,-0.47 28.87,-0.47 343.8,0 515.41,173.2 514.71,519.57 -278.58,-29.37 -501.79,-244.4 -543.58,-519.1z"/>
    <path class="fil14" d="M7965.35 20221.8c-513.27,362 -1409.43,601.82 -2429.19,601.82 -1019.77,0 -1915.92,-239.82 -2429.2,-601.82 626.69,277.6 1483.77,448.8 2429.2,448.8 945.42,0 1802.5,-171.2 2429.19,-448.8z"/>
    <path class="fil7" d="M8610.01 19884.23l78.59 -311.95c141.67,72.05 285.77,108.08 432.33,108.08 84.34,0 150.26,-15.97 197.33,-47.9 47.09,-31.94 70.42,-75.74 70.42,-131.42 0,-49.94 -21.28,-91.71 -63.85,-125.28 -42.59,-33.56 -116.29,-67.95 -221.09,-103.16 -316.06,-104.81 -474.09,-269.39 -474.09,-493.75 0,-144.92 58.15,-264.46 174.42,-358.21 116.26,-93.76 271.02,-140.43 464.25,-140.43 168.68,0 316.07,28.66 442.15,85.97l-85.96 302.15c-115.46,-54.06 -235.83,-81.07 -361.11,-81.07 -76.96,0 -137.14,14.74 -180.54,44.22 -43.39,29.48 -65.1,67.95 -65.1,115.44 0,43.4 18.43,80.24 54.86,110.95 36.45,30.7 123.65,70.82 262.03,119.96 153.11,54.03 265.28,120.78 336.12,200.6 70.82,79.84 106.03,179.32 106.03,298.05 0,152.29 -59.78,275.93 -179.32,370.92 -119.54,94.98 -286.59,142.47 -501.11,142.47 -183.41,0 -345.54,-35.22 -486.36,-105.64zm2522.71 -400.38l-798.33 0c6.55,71.23 42.59,126.51 107.67,166.21 65.1,39.71 146.16,59.77 243.59,59.77 124.46,0 239.1,-17.19 343.9,-51.58l49.14 253.01c-124.46,52.41 -273.48,78.61 -447.07,78.61 -205.52,0 -366.41,-54.86 -483.1,-164.58 -116.68,-109.71 -175.22,-259.57 -175.22,-449.53 0,-174.4 56.09,-325.06 168.26,-451.57 112.19,-126.5 263.25,-189.54 453.21,-189.54 175.22,0 311.14,56.49 407.77,169.48 96.61,112.99 144.92,257.93 144.92,434.78 0,58.15 -4.92,106.45 -14.74,144.94zm-800.78 -260.38l461.8 0c0,-56.51 -16.38,-110.54 -49.53,-161.71 -33.17,-51.18 -89.66,-76.56 -169.1,-76.56 -65.5,0 -119.54,21.7 -162.53,65.5 -42.97,43.81 -70,101.52 -80.64,172.77zm1041.52 739.38l0 -800.79c0,-180.14 -3.27,-313.61 -9.83,-400.4l326.7 0 12.29 228.45 9.82 0c29.48,-82.7 75.34,-146.16 137.15,-189.96 61.82,-43.81 127.33,-65.5 196.93,-65.5 38.47,0 65.5,2.45 81.06,7.35l0 356.19c-31.95,-8.19 -66.33,-12.27 -103.17,-12.27 -70.42,0 -133.06,19.64 -187.91,59.36 -54.86,39.7 -82.29,110.12 -82.29,210.84l0 606.73 -380.75 0zm872.01 -1201.19l412.69 0c158.02,517.49 238.26,799.98 240.73,847.47l9.82 0c14.73,-81.89 36.02,-172.37 63.87,-271.44l164.58 -576.03 402.85 0 -461.81 1201.19 -383.21 0 -449.52 -1201.19zm1852.15 1201.19l-380.74 0 0 -1201.19 380.74 0 0 1201.19zm22.11 -1557.37c0,57.33 -19.66,104.82 -58.96,142.47 -39.3,37.67 -90.88,56.5 -154.76,56.5 -63.85,0 -115.44,-18.83 -154.75,-56.5 -39.3,-37.65 -58.96,-85.14 -58.96,-142.47 0,-57.31 20.06,-104.8 59.78,-142.47 39.72,-37.65 90.88,-56.49 153.93,-56.49 63.05,0 114.64,18.84 154.34,56.49 39.72,37.67 59.38,85.16 59.38,142.47zm1166.78 1247.87l51.59 277.57c-83.51,35.2 -186.69,54.03 -309.52,56.49l-46.66 81.06c53.23,7.37 96.62,27.85 129.78,61.41 33.17,33.57 49.53,72.87 49.53,117.91 0,75.34 -28.25,130.2 -84.74,164.57 -56.5,34.4 -128.97,51.59 -217.39,51.59 -76.96,0 -143.29,-16.37 -198.97,-49.12l51.59 -140.02c44.21,27.84 88.43,41.75 132.65,41.75 58.95,0 88.41,-21.28 88.41,-63.85 0,-49.96 -64.68,-79.42 -194.05,-88.44l95.8 -189.14c-159.66,-27.85 -283.3,-95.8 -371.33,-203.47 -88.01,-107.67 -132.23,-241.14 -132.23,-400.8 0,-181.79 61.81,-333.26 185.46,-454.44 123.64,-121.18 295.99,-181.77 517.07,-181.77 112.17,0 212.07,16.37 299.68,49.12l-61.4 282.49c-58.96,-27.83 -131.83,-41.77 -218.62,-41.77 -99.9,0 -180.14,30.71 -240.74,92.53 -60.58,61.83 -90.88,142.47 -90.88,241.55 0,103.17 31.92,185.06 95.4,245.64 63.45,60.58 144.51,90.89 243.59,90.89 83.51,0 158.84,-13.92 225.98,-41.75zm1483.66 -304.6c0,196.51 -61.81,352.49 -185.46,467.93 -123.64,115.46 -278.8,173.19 -465.48,173.19 -188.34,0 -342.67,-56.9 -463.04,-170.32 -120.36,-113.39 -180.54,-262.83 -180.54,-448.69 0,-190.79 60.59,-344.72 181.77,-461.41 121.18,-116.67 281.67,-174.8 481.46,-174.8 186.69,0 338.58,57.31 455.67,171.95 117.09,114.62 175.62,262.01 175.62,442.15zm-903.95 14.74c0,106.44 23.33,192.41 69.59,257.91 46.27,65.5 108.09,98.25 185.87,98.25 76.16,0 137.57,-32.33 183.83,-97.02 46.27,-64.68 69.18,-151.89 69.18,-261.61 0,-104.8 -22.11,-190.36 -66.33,-256.69 -44.21,-66.32 -105.62,-99.48 -184.21,-99.48 -81.07,0 -144.12,33.16 -189.56,99.88 -45.44,66.75 -68.37,153.14 -68.37,258.76zm1068.53 540.4l68.78 -270.2c44.21,25.38 98.67,46.67 162.95,64.28 64.27,17.61 121.18,26.6 171.12,26.6 109.72,0 164.58,-32.75 164.58,-98.25 0,-32.75 -13.09,-58.13 -39.7,-76.15 -26.63,-18.01 -74.12,-37.67 -142.07,-58.95 -235.82,-72.87 -353.73,-192.43 -353.73,-358.64 0,-115.46 46.26,-210.84 138.39,-285.76 92.11,-74.92 212.89,-112.17 362.73,-112.17 131,0 247.27,23.74 348.8,71.23l-66.33 260.38c-94.98,-45.86 -185.04,-68.78 -270.2,-68.78 -98.25,0 -147.39,31.93 -147.39,95.81 0,28.65 15.16,52.81 45.04,72.45 29.9,19.66 81.89,41.34 156.39,65.1 114.64,36.02 198.97,83.51 253.01,142.87 54.05,59.38 81.06,134.7 81.06,225.58 0,118.74 -46.66,213.31 -140.02,284.14 -93.33,70.82 -223.51,106.44 -390.56,106.44 -153.93,0 -288.21,-28.67 -402.85,-85.98z"/>
    <path class="fil15" d="M8634.87 19850.17l78.59 -311.95c141.67,72.05 285.76,108.07 432.33,108.07 84.34,0 150.26,-15.96 197.33,-47.89 47.09,-31.95 70.42,-75.74 70.42,-131.42 0,-49.95 -21.28,-91.71 -63.86,-125.29 -42.58,-33.55 -116.28,-67.95 -221.08,-103.15 -316.06,-104.82 -474.09,-269.4 -474.09,-493.75 0,-144.92 58.15,-264.46 174.41,-358.22 116.27,-93.75 271.03,-140.42 464.26,-140.42 168.67,0 316.06,28.66 442.15,85.97l-85.97 302.14c-115.46,-54.05 -235.82,-81.06 -361.1,-81.06 -76.97,0 -137.15,14.74 -180.54,44.22 -43.4,29.47 -65.1,67.95 -65.1,115.44 0,43.39 18.43,80.24 54.86,110.94 36.44,30.71 123.65,70.83 262.02,119.96 153.12,54.04 265.29,120.78 336.13,200.61 70.82,79.83 106.02,179.31 106.02,298.05 0,152.29 -59.77,275.92 -179.31,370.92 -119.54,94.98 -286.59,142.47 -501.11,142.47 -183.41,0 -345.54,-35.22 -486.36,-105.64zm2522.71 -400.38l-798.33 0c6.54,71.22 42.58,126.5 107.67,166.2 65.1,39.72 146.16,59.78 243.59,59.78 124.46,0 239.1,-17.19 343.9,-51.59l49.13 253.02c-124.46,52.4 -273.47,78.61 -447.07,78.61 -205.52,0 -366.4,-54.86 -483.09,-164.58 -116.68,-109.72 -175.22,-259.58 -175.22,-449.54 0,-174.39 56.08,-325.06 168.25,-451.56 112.19,-126.51 263.26,-189.54 453.22,-189.54 175.22,0 311.14,56.49 407.77,169.48 96.6,112.99 144.92,257.93 144.92,434.78 0,58.15 -4.92,106.44 -14.74,144.94zm-800.79 -260.39l461.81 0c0,-56.5 -16.38,-110.54 -49.54,-161.7 -33.17,-51.19 -89.66,-76.57 -169.09,-76.57 -65.5,0 -119.54,21.71 -162.53,65.5 -42.98,43.82 -70,101.53 -80.65,172.77zm1041.53 739.38l0 -800.78c0,-180.14 -3.27,-313.61 -9.84,-400.4l326.71 0 12.29 228.45 9.82 0c29.47,-82.71 75.34,-146.16 137.15,-189.96 61.82,-43.81 127.32,-65.5 196.92,-65.5 38.48,0 65.5,2.45 81.07,7.35l0 356.18c-31.95,-8.19 -66.33,-12.27 -103.18,-12.27 -70.42,0 -133.05,19.64 -187.91,59.36 -54.86,39.7 -82.29,110.12 -82.29,210.84l0 606.73 -380.74 0zm872.01 -1201.18l412.69 0c158.01,517.49 238.25,799.98 240.72,847.47l9.82 0c14.74,-81.89 36.03,-172.37 63.88,-271.45l164.57 -576.02 402.86 0 -461.81 1201.18 -383.21 0 -449.52 -1201.18zm1852.15 1201.18l-380.75 0 0 -1201.18 380.75 0 0 1201.18zm22.1 -1557.37c0,57.33 -19.65,104.82 -58.95,142.47 -39.3,37.67 -90.89,56.51 -154.76,56.51 -63.86,0 -115.44,-18.84 -154.76,-56.51 -39.3,-37.65 -58.95,-85.14 -58.95,-142.47 0,-57.31 20.06,-104.8 59.77,-142.47 39.72,-37.65 90.89,-56.48 153.94,-56.48 63.05,0 114.64,18.83 154.34,56.48 39.72,37.67 59.37,85.16 59.37,142.47zm1166.79 1247.87l51.59 277.57c-83.52,35.21 -186.69,54.04 -309.52,56.49l-46.67 81.06c53.24,7.37 96.63,27.85 129.78,61.41 33.17,33.57 49.54,72.87 49.54,117.91 0,75.34 -28.25,130.2 -84.74,164.58 -56.5,34.4 -128.97,51.59 -217.39,51.59 -76.97,0 -143.29,-16.37 -198.97,-49.12l51.58 -140.02c44.22,27.83 88.44,41.75 132.65,41.75 58.96,0 88.42,-21.29 88.42,-63.86 0,-49.96 -64.68,-79.42 -194.06,-88.43l95.8 -189.14c-159.65,-27.85 -283.29,-95.8 -371.32,-203.47 -88.01,-107.67 -132.23,-241.15 -132.23,-400.81 0,-181.78 61.81,-333.25 185.46,-454.43 123.64,-121.19 295.99,-181.77 517.07,-181.77 112.17,0 212.07,16.36 299.68,49.12l-61.41 282.49c-58.95,-27.84 -131.82,-41.77 -218.61,-41.77 -99.9,0 -180.14,30.7 -240.74,92.53 -60.59,61.83 -90.89,142.47 -90.89,241.55 0,103.17 31.93,185.05 95.4,245.64 63.46,60.58 144.52,90.88 243.6,90.88 83.51,0 158.83,-13.91 225.98,-41.75zm1483.66 -304.59c0,196.5 -61.81,352.49 -185.46,467.93 -123.64,115.46 -278.8,173.19 -465.49,173.19 -188.33,0 -342.67,-56.91 -463.03,-170.32 -120.36,-113.4 -180.54,-262.83 -180.54,-448.7 0,-190.78 60.58,-344.71 181.77,-461.4 121.18,-116.67 281.66,-174.8 481.46,-174.8 186.69,0 338.58,57.31 455.66,171.95 117.09,114.62 175.63,262.01 175.63,442.15zm-903.96 14.73c0,106.45 23.34,192.41 69.6,257.92 46.26,65.5 108.09,98.25 185.86,98.25 76.17,0 137.57,-32.33 183.84,-97.03 46.26,-64.68 69.18,-151.89 69.18,-261.6 0,-104.8 -22.11,-190.37 -66.33,-256.69 -44.22,-66.33 -105.62,-99.48 -184.22,-99.48 -81.06,0 -144.11,33.15 -189.56,99.88 -45.44,66.75 -68.37,153.13 -68.37,258.75zm1068.54 540.41l68.77 -270.2c44.22,25.38 98.68,46.66 162.95,64.27 64.28,17.61 121.19,26.61 171.13,26.61 109.72,0 164.58,-32.75 164.58,-98.25 0,-32.76 -13.1,-58.14 -39.7,-76.15 -26.63,-18.01 -74.12,-37.67 -142.07,-58.95 -235.82,-72.88 -353.74,-192.43 -353.74,-358.64 0,-115.46 46.27,-210.84 138.4,-285.76 92.11,-74.92 212.89,-112.17 362.73,-112.17 131,0 247.27,23.73 348.79,71.22l-66.32 260.39c-94.98,-45.87 -185.04,-68.78 -270.2,-68.78 -98.26,0 -147.39,31.93 -147.39,95.8 0,28.66 15.16,52.81 45.04,72.45 29.9,19.66 81.88,41.35 156.38,65.1 114.64,36.03 198.98,83.52 253.02,142.88 54.05,59.37 81.06,134.69 81.06,225.58 0,118.73 -46.67,213.31 -140.02,284.13 -93.33,70.83 -223.52,106.45 -390.56,106.45 -153.94,0 -288.22,-28.67 -402.85,-85.98z"/>
   </g>
  </g>
  <rect class="fil16" x="-8.16" y="-0.38" width="21016.32" height="29700.76"/>
 </g>
</svg>
